<svg xmlns="http://www.w3.org/2000/svg" width="512" height="512" fill="none" viewBox="0 0 512 512"><defs><linearGradient id="smb-frame" x1="72" x2="440" y1="70" y2="442" gradientUnits="userSpaceOnUse"><stop offset="0%" stop-color="#2dd4bf"/><stop offset="62%" stop-color="#22b8c7"/><stop offset="100%" stop-color="#b9e769"/></linearGradient><linearGradient id="smb-storage" x1="180" x2="334" y1="170" y2="346" gradientUnits="userSpaceOnUse"><stop offset="0%" stop-color="#67e8f9"/><stop offset="100%" stop-color="#2dd4bf"/></linearGradient><filter id="smb-glow" width="140%" height="140%" x="-20%" y="-20%"><feGaussianBlur result="blur" stdDeviation="9"/><feComposite in="SourceGraphic" in2="blur"/></filter></defs><rect width="456" height="456" x="28" y="28" fill="#071723" stroke="url(#smb-frame)" stroke-width="20" rx="112"/><g stroke-linecap="round" stroke-linejoin="round"><path stroke="url(#smb-frame)" stroke-width="22" d="M151 174h-49c-20 0-36 16-36 36v10"/><circle cx="66" cy="250" r="22" fill="#b9e769" stroke="#f4ffe1" stroke-width="10"/><path stroke="url(#smb-frame)" stroke-width="22" d="M361 338h49c20 0 36-16 36-36v-10"/><circle cx="446" cy="262" r="22" fill="#2dd4bf" stroke="#e9fffc" stroke-width="10"/></g><g filter="url(#smb-glow)"><rect width="220" height="360" x="146" y="76" fill="#0b2631" stroke="url(#smb-frame)" stroke-width="22" rx="52"/><path stroke="#b8d6d9" stroke-linecap="round" stroke-width="14" d="M225 116h62"/><rect width="146" height="54" x="183" y="166" fill="#2dd4bf1f" stroke="url(#smb-storage)" stroke-width="12" rx="18"/><rect width="146" height="54" x="183" y="236" fill="#22b8c71f" stroke="url(#smb-storage)" stroke-width="12" rx="18"/><rect width="146" height="54" x="183" y="306" fill="#b9e7691a" stroke="url(#smb-frame)" stroke-width="12" rx="18"/><circle cx="210" cy="193" r="8" fill="#b9e769"/><circle cx="210" cy="263" r="8" fill="#67e8f9"/><circle cx="210" cy="333" r="8" fill="#b9e769"/><path stroke="#d5f0f1" stroke-linecap="round" stroke-width="10" d="M238 193h61m-61 70h61m-61 70h61"/><circle cx="256" cy="396" r="12" fill="#b9e769"/></g></svg>